<svg width="28" height="28" viewBox="0 0 28 28" fill="none" xmlns="http://www.w3.org/2000/svg">
<path d="M22.1697 19.8305C20.2446 19.8305 18.6785 21.3967 18.6785 23.3217C18.6785 25.2468 20.2447 26.813 22.1697 26.813C24.0948 26.813 25.661 25.2468 25.661 23.3217C25.661 21.3967 24.0948 19.8305 22.1697 19.8305ZM22.1697 24.7182C21.3996 24.7182 20.7732 24.0919 20.7732 23.3217C20.7732 22.5516 21.3996 21.9252 22.1697 21.9252C22.9399 21.9252 23.5662 22.5516 23.5662 23.3217C23.5662 24.0919 22.9399 24.7182 22.1697 24.7182Z" fill="white"/>
<path d="M27.7774 6.33695C27.5791 6.08314 27.275 5.9351 26.9528 5.9351H6.46519L5.52254 1.99102C5.40977 1.51972 4.98835 1.187 4.50376 1.187H1.04738C0.468893 1.18694 0 1.65584 0 2.23432C0 2.81281 0.468893 3.2817 1.04738 3.2817H3.67704L7.08103 17.5248C7.1938 17.9964 7.61522 18.3288 8.09981 18.3288H24.4042C24.8856 18.3288 25.3053 18.0006 25.4208 17.5335L27.9695 7.23416C28.0466 6.9214 27.9757 6.59075 27.7774 6.33695ZM23.5847 16.2341H8.92653L6.96581 8.02986H25.6145L23.5847 16.2341Z" fill="white"/>
<path d="M9.4964 19.8305C7.57128 19.8305 6.00513 21.3967 6.00513 23.3217C6.00513 25.2468 7.57133 26.813 9.4964 26.813C11.4215 26.813 12.9877 25.2468 12.9877 23.3217C12.9877 21.3967 11.4215 19.8305 9.4964 19.8305ZM9.4964 24.7182C8.72623 24.7182 8.09989 24.0919 8.09989 23.3217C8.09989 22.5516 8.72623 21.9252 9.4964 21.9252C10.2666 21.9252 10.8929 22.5516 10.8929 23.3217C10.8929 24.0919 10.2666 24.7182 9.4964 24.7182Z" fill="white"/>
</svg>
