<svg width="36" height="36" viewBox="0 0 36 36" fill="none" xmlns="http://www.w3.org/2000/svg">
<g clip-path="url(#clip0_29_1075)">
<path d="M18 36C27.9411 36 36 27.9411 36 18C36 8.05887 27.9411 0 18 0C8.05887 0 0 8.05887 0 18C0 27.9411 8.05887 36 18 36Z" fill="#3A559F"/>
<path d="M23.7028 15.8686L23.3408 19.0043C23.3257 19.1474 23.2587 19.28 23.1524 19.3769C23.046 19.4738 22.9078 19.5283 22.764 19.53H19.4912L19.4749 28.8266C19.476 28.9368 19.4337 29.0429 19.3571 29.1222C19.2806 29.2014 19.1759 29.2473 19.0658 29.25H15.7501C15.695 29.25 15.6404 29.2389 15.5897 29.2174C15.5389 29.1958 15.4931 29.1642 15.4549 29.1245C15.4167 29.0847 15.3869 29.0377 15.3673 28.9861C15.3477 28.9346 15.3388 28.8796 15.341 28.8245V19.53H12.8865C12.8094 19.5292 12.7332 19.5132 12.6623 19.483C12.5913 19.4527 12.5271 19.4088 12.4731 19.3537C12.4192 19.2986 12.3766 19.2335 12.3479 19.1619C12.3191 19.0904 12.3047 19.0139 12.3055 18.9368L12.2933 15.8011C12.2922 15.7238 12.3064 15.647 12.335 15.5751C12.3636 15.5032 12.4061 15.4376 12.46 15.3822C12.514 15.3267 12.5783 15.2824 12.6494 15.2518C12.7204 15.2212 12.7968 15.2049 12.8742 15.2039H15.341V12.1766C15.341 8.6625 17.4274 6.75 20.4874 6.75H22.9951C23.0726 6.7508 23.1492 6.7669 23.2205 6.79738C23.2918 6.82785 23.3564 6.8721 23.4106 6.92759C23.4647 6.98308 23.5074 7.04872 23.5362 7.12074C23.5649 7.19276 23.5791 7.26974 23.578 7.34727V9.98591C23.5791 10.0634 23.5649 10.1404 23.5362 10.2124C23.5074 10.2845 23.4647 10.3501 23.4106 10.4056C23.3564 10.4611 23.2918 10.5053 23.2205 10.5358C23.1492 10.5663 23.0726 10.5824 22.9951 10.5832H21.4569C19.794 10.5832 19.4708 11.4014 19.4708 12.5836V15.2039H23.126C23.2091 15.2049 23.2911 15.2235 23.3665 15.2585C23.4419 15.2935 23.5091 15.344 23.5636 15.4068C23.618 15.4696 23.6586 15.5432 23.6826 15.6228C23.7066 15.7024 23.7135 15.7862 23.7028 15.8686Z" fill="white"/>
</g>
<defs>
<clipPath id="clip0_29_1075">
<rect width="36" height="36" fill="white"/>
</clipPath>
</defs>
</svg>
