<svg width="30" height="30" viewBox="0 0 30 30" fill="none" xmlns="http://www.w3.org/2000/svg">
<path d="M21.8281 29.6279C21.1301 29.6273 20.4354 29.5329 19.7626 29.3475C15.2006 28.0835 11.0432 25.6606 7.69479 22.3143C4.34638 18.968 1.92086 14.8122 0.654086 10.2509C0.368439 9.21735 0.300941 8.13564 0.455882 7.07455C0.610823 6.01346 0.984814 4.99621 1.55409 4.08745C2.13041 3.15654 2.89129 2.35353 3.78983 1.72793C4.68837 1.10233 5.70552 0.667401 6.77859 0.449948C7.46902 0.306811 8.18691 0.382626 8.83221 0.666828C9.47751 0.95103 10.0181 1.42946 10.3786 2.03545L12.7246 5.99545C13.2726 6.92145 13.4442 8.02244 13.2042 9.07131C12.9642 10.1202 12.3307 11.0369 11.4346 11.6324L9.73809 12.7619C11.3358 16.0288 13.9741 18.6719 17.2381 20.2754L18.3811 18.5699C18.9798 17.675 19.8993 17.0442 20.9497 16.8078C22.0001 16.5714 23.1012 16.7474 24.0256 17.2994L27.9886 19.6634C28.5883 20.0208 29.0625 20.5553 29.3459 21.1933C29.6293 21.8312 29.708 22.5414 29.5711 23.2259C29.3544 24.3003 28.9196 25.3187 28.2937 26.2184C27.6678 27.118 26.864 27.8797 25.9321 28.4564C24.7004 29.2227 23.2787 29.6285 21.8281 29.6279ZM7.46709 2.62795C7.39252 2.628 7.31815 2.63554 7.24509 2.65045C6.46888 2.80387 5.73257 3.11543 5.082 3.56575C4.43142 4.01607 3.88052 4.59549 3.46359 5.26795C3.05799 5.91442 2.79168 6.63838 2.68165 7.39358C2.57163 8.14878 2.62031 8.91862 2.82459 9.65395C3.98613 13.8395 6.21126 17.653 9.28351 20.7237C12.3557 23.7944 16.1705 26.0176 20.3566 27.1769C21.0914 27.3803 21.8604 27.4283 22.6148 27.318C23.3691 27.2078 24.0923 26.9416 24.7381 26.5364C25.4072 26.1235 25.9845 25.5776 26.4342 24.9325C26.8839 24.2875 27.1965 23.5571 27.3526 22.7864C27.398 22.5583 27.3718 22.3217 27.2776 22.109C27.1833 21.8963 27.0256 21.718 26.8261 21.5984L22.8616 19.2344C22.432 18.9774 21.92 18.8953 21.4317 19.0054C20.9433 19.1154 20.5159 19.409 20.2381 19.8254L18.5656 22.3214C18.4202 22.5376 18.2046 22.6967 17.9552 22.7719C17.7059 22.8471 17.4382 22.8337 17.1976 22.7339C12.7191 20.8413 9.15842 17.272 7.27659 12.7889C7.17615 12.5479 7.16269 12.2795 7.23849 12.0296C7.3143 11.7797 7.47466 11.564 7.69209 11.4194L10.1836 9.74995C10.5999 9.47362 10.8943 9.048 11.0059 8.56094C11.1176 8.07387 11.038 7.56253 10.7836 7.13245L8.43609 3.17845C8.33655 3.00998 8.19485 2.87033 8.02494 2.77328C7.85503 2.67622 7.66276 2.6251 7.46709 2.62495V2.62795ZM23.6251 11.9999C23.6231 10.5087 23.0298 9.07913 21.9754 8.02466C20.9209 6.9702 19.4913 6.37693 18.0001 6.37495C17.7017 6.37495 17.4156 6.49347 17.2046 6.70445C16.9936 6.91543 16.8751 7.20158 16.8751 7.49995C16.8751 7.79832 16.9936 8.08447 17.2046 8.29544C17.4156 8.50642 17.7017 8.62495 18.0001 8.62495C18.8948 8.62614 19.7526 8.9821 20.3853 9.61478C21.0179 10.2475 21.3739 11.1052 21.3751 11.9999C21.3751 12.2983 21.4936 12.5845 21.7046 12.7954C21.9156 13.0064 22.2017 13.1249 22.5001 13.1249C22.7985 13.1249 23.0846 13.0064 23.2956 12.7954C23.5066 12.5845 23.6251 12.2983 23.6251 11.9999ZM28.1251 11.9999C28.1219 9.31561 27.0542 6.74212 25.156 4.844C23.2579 2.94588 20.6844 1.87812 18.0001 1.87495C17.7017 1.87495 17.4156 1.99347 17.2046 2.20445C16.9936 2.41543 16.8751 2.70158 16.8751 2.99995C16.8751 3.29832 16.9936 3.58447 17.2046 3.79544C17.4156 4.00642 17.7017 4.12495 18.0001 4.12495C20.0879 4.12733 22.0896 4.95778 23.5659 6.43411C25.0423 7.91045 25.8727 9.9121 25.8751 11.9999C25.8751 12.2983 25.9936 12.5845 26.2046 12.7954C26.4156 13.0064 26.7017 13.1249 27.0001 13.1249C27.2985 13.1249 27.5846 13.0064 27.7956 12.7954C28.0066 12.5845 28.1251 12.2983 28.1251 11.9999Z" fill="white"/>
</svg>
