<svg width="36" height="36" viewBox="0 0 36 36" fill="none" xmlns="http://www.w3.org/2000/svg">
<g clip-path="url(#clip0_29_1087)">
<path d="M18 36C27.9411 36 36 27.9411 36 18C36 8.05888 27.9411 0 18 0C8.05888 0 0 8.05888 0 18C0 27.9411 8.05888 36 18 36Z" fill="#FF0000"/>
<path d="M23.8903 11.2285H12.1098C11.639 11.2285 11.1728 11.3213 10.7379 11.5015C10.303 11.6817 9.90787 11.9459 9.57509 12.2789C9.24231 12.6119 8.9784 13.0072 8.79846 13.4423C8.61851 13.8773 8.52606 14.3435 8.52637 14.8143V21.1854C8.52606 21.6561 8.61851 22.1224 8.79846 22.5574C8.9784 22.9924 9.24231 23.3877 9.57509 23.7208C9.90787 24.0538 10.303 24.3179 10.7379 24.4981C11.1728 24.6784 11.639 24.7711 12.1098 24.7711H23.8903C24.3611 24.7711 24.8273 24.6784 25.2622 24.4981C25.6971 24.3179 26.0922 24.0538 26.425 23.7208C26.7578 23.3877 27.0217 22.9924 27.2016 22.5574C27.3816 22.1224 27.474 21.6561 27.4737 21.1854V14.8143C27.474 14.3435 27.3816 13.8773 27.2016 13.4423C27.0217 13.0072 26.7578 12.6119 26.425 12.2789C26.0922 11.9459 25.6971 11.6817 25.2622 11.5015C24.8273 11.3213 24.3611 11.2285 23.8903 11.2285ZM15.5037 20.9035V15.0961L20.4964 17.9998L15.5037 20.9035Z" fill="white"/>
</g>
<defs>
<clipPath id="clip0_29_1087">
<rect width="36" height="36" fill="white"/>
</clipPath>
</defs>
</svg>
